#define font_width 128
#define font_height 88
static char font_bits[] = {
 0x00, 0x00, 0x00, 0x00, 0x00, 0x00, 0x00, 0x00, 0x00, 0x00, 0x00, 0x00, 0x00, 0x00, 0x00, 0x00, 0x00, 0xaa, 0x12, 0x1e, 0x0c, 0x02, 0x70, 0x18, 0x22, 0x22, 0x18, 0x00, 0x00, 0x18, 0x18, 0xff, 0x18, 0x00, 0x12, 0x02, 0x02, 0x02, 0x50, 0x18, 0x26, 0x22, 0x18, 0x00, 0x00, 0x18, 0x18, 0x00, 0x3c, 0x54, 0x1e, 0x0e, 0x02, 0x02, 0x70, 0x7e, 0x2a, 0x22, 0x18, 0x00, 0x00, 0x18, 0x18, 0x00, 0x7e, 0x00, 0x12, 0x02, 0x02, 0x02, 0x00, 0x18, 0x32, 0x14, 0x18, 0x00, 0x00, 0x18, 0x18, 0x00, 0x3c, 0xaa, 0xfa, 0xf2, 0x7c, 0xfe, 0x00, 0x18, 0x2a, 0xf8, 0x1f, 0x1f, 0xf8, 0xf8, 0xff, 0x00, 0x18, 0x00, 0x20, 0x10, 0x90, 0x10, 0x00, 0x00, 0x08, 0x20, 0x00, 0x18, 0x18, 0x00, 0x18, 0x00, 0x00, 0x54, 0x20, 0x70, 0x70, 0x70, 0x00, 0x7e, 0x08, 0x20, 0x00, 0x18, 0x18, 0x00, 0x18, 0x00, 0x00, 0x00, 0x20, 0x10, 0x50, 0x10, 0x00, 0x00, 0x08, 0x20, 0x00, 0x18, 0x18, 0x00, 0x18, 0x00, 0x00, 0xaa, 0x20, 0x10, 0x90, 0x10, 0x00, 0x00, 0xf8, 0x20, 0x00, 0x18, 0x18, 0x00, 0x18, 0x00, 0x00, 0x00, 0x00, 0x00, 0x00, 0x00, 0x00, 0x00, 0x00, 0x00, 0x00, 0x00, 0x00, 0x00, 0x00, 0x00,
 0x00, 0x00, 0x00, 0x00, 0x00, 0x00, 0x00, 0x00, 0x00, 0x00, 0x00, 0x00, 0x00, 0x00, 0x00, 0x00, 0x00, 0x00, 0x00, 0x00, 0x18, 0x18, 0x18, 0x00, 0x18, 0x60, 0x06, 0xfe, 0x40, 0x38, 0x00, 0x00, 0x00, 0x00, 0x00, 0x00, 0x18, 0x18, 0x18, 0x00, 0x18, 0x30, 0x0c, 0x6c, 0x20, 0x6c, 0x00, 0x00, 0xff, 0x00, 0x00, 0x00, 0x18, 0x18, 0x18, 0x00, 0x18, 0x18, 0x18, 0x6c, 0x7e, 0x0c, 0x00, 0x00, 0x00, 0x00, 0x00, 0x00, 0x18, 0x18, 0x18, 0x00, 0x18, 0x0c, 0x30, 0x6c, 0x18, 0x1e, 0x18, 0x00, 0x00, 0xff, 0x00, 0x00, 0xf8, 0x1f, 0xff, 0xff, 0x18, 0x18, 0x18, 0x6c, 0x7e, 0x0c, 0x18, 0x00, 0x00, 0x00, 0x00, 0x00, 0x18, 0x18, 0x00, 0x18, 0x18, 0x36, 0x6c, 0x6c, 0x04, 0x4e, 0x00, 0x42, 0x00, 0x00, 0xff, 0x00, 0x18, 0x18, 0x00, 0x18, 0x18, 0x6c, 0x36, 0x6c, 0x02, 0x7e, 0x00, 0x7e, 0x00, 0x00, 0x00, 0x00, 0x18, 0x18, 0x00, 0x18, 0x18, 0x18, 0x18, 0x00, 0x00, 0x00, 0x00, 0x00, 0x00, 0x00, 0x00, 0xff, 0x18, 0x18, 0x00, 0x18, 0x18, 0x30, 0x0c, 0x00, 0x00, 0x00, 0x00, 0x00, 0x00, 0x00, 0x00, 0x00, 0x00, 0x00, 0x00, 0x00, 0x00, 0x00, 0x00, 0x00, 0x00, 0x00, 0x00, 0x00,
 0x00, 0x00, 0x00, 0x00, 0x00, 0x00, 0x00, 0x00, 0x00, 0x00, 0x00, 0x00, 0x00, 0x00, 0x00, 0x00, 0x00, 0x18, 0x66, 0x6c, 0x66, 0x4e, 0x18, 0x18, 0x30, 0x0c, 0x00, 0x00, 0x00, 0x00, 0x00, 0x40, 0x00, 0x18, 0x66, 0xfe, 0x3c, 0x6a, 0x24, 0x18, 0x18, 0x18, 0x66, 0x18, 0x00, 0x00, 0x00, 0x60, 0x00, 0x18, 0x44, 0x6c, 0x66, 0x36, 0x14, 0x10, 0x18, 0x18, 0x3c, 0x18, 0x00, 0x00, 0x00, 0x30, 0x00, 0x18, 0x22, 0x6c, 0x66, 0x18, 0x0c, 0x08, 0x18, 0x18, 0x7e, 0x7e, 0x00, 0x7e, 0x00, 0x18, 0x00, 0x18, 0x00, 0x6c, 0x66, 0x6c, 0x52, 0x00, 0x18, 0x18, 0x3c, 0x18, 0x00, 0x00, 0x00, 0x0c, 0x00, 0x00, 0x00, 0xfe, 0x3c, 0x56, 0x22, 0x00, 0x18, 0x18, 0x66, 0x18, 0x18, 0x00, 0x18, 0x06, 0x00, 0x18, 0x00, 0x6c, 0x66, 0x72, 0x5c, 0x00, 0x30, 0x0c, 0x00, 0x00, 0x18, 0x00, 0x18, 0x02, 0x00, 0x00, 0x00, 0x00, 0x00, 0x00, 0x00, 0x00, 0x00, 0x00, 0x00, 0x00, 0x10, 0x00, 0x00, 0x00, 0x00, 0x00, 0x00, 0x00, 0x00, 0x00, 0x00, 0x00, 0x00, 0x00, 0x00, 0x00, 0x08, 0x00, 0x00, 0x00, 0x00, 0x00, 0x00, 0x00, 0x00, 0x00, 0x00, 0x00, 0x00, 0x00, 0x00, 0x00, 0x00, 0x00, 0x00, 0x00,
 0x00, 0x00, 0x00, 0x00, 0x00, 0x00, 0x00, 0x00, 0x00, 0x00, 0x00, 0x00, 0x00, 0x00, 0x00, 0x00, 0x3c, 0x18, 0x3c, 0x3c, 0x30, 0x7e, 0x3c, 0x7e, 0x3c, 0x3c, 0x00, 0x00, 0x30, 0x00, 0x0c, 0x3c, 0x62, 0x1c, 0x66, 0x66, 0x18, 0x06, 0x06, 0x62, 0x66, 0x66, 0x00, 0x00, 0x18, 0x00, 0x18, 0x66, 0x72, 0x1a, 0x60, 0x60, 0x0c, 0x3e, 0x3e, 0x60, 0x66, 0x66, 0x18, 0x18, 0x0c, 0x7e, 0x30, 0x60, 0x5a, 0x18, 0x30, 0x38, 0x66, 0x66, 0x66, 0x30, 0x3c, 0x66, 0x18, 0x18, 0x06, 0x00, 0x60, 0x30, 0x4e, 0x18, 0x18, 0x60, 0x7e, 0x60, 0x66, 0x18, 0x66, 0x7c, 0x00, 0x00, 0x0c, 0x7e, 0x30, 0x18, 0x46, 0x18, 0x4c, 0x66, 0x60, 0x66, 0x66, 0x0c, 0x66, 0x60, 0x18, 0x18, 0x18, 0x00, 0x18, 0x00, 0x3c, 0x3c, 0x7e, 0x3c, 0x60, 0x3c, 0x3c, 0x0c, 0x3c, 0x3c, 0x18, 0x18, 0x30, 0x00, 0x0c, 0x18, 0x00, 0x00, 0x00, 0x00, 0x00, 0x00, 0x00, 0x00, 0x00, 0x00, 0x00, 0x10, 0x00, 0x00, 0x00, 0x00, 0x00, 0x00, 0x00, 0x00, 0x00, 0x00, 0x00, 0x00, 0x00, 0x00, 0x00, 0x08, 0x00, 0x00, 0x00, 0x00, 0x00, 0x00, 0x00, 0x00, 0x00, 0x00, 0x00, 0x00, 0x00, 0x00, 0x00, 0x00, 0x00, 0x00, 0x00, 0x00,
 0x00, 0x00, 0x00, 0x00, 0x00, 0x00, 0x00, 0x00, 0x00, 0x00, 0x00, 0x00, 0x00, 0x00, 0x00, 0x00, 0x3c, 0x18, 0x3e, 0x3c, 0x3e, 0x7e, 0x7e, 0x3c, 0x66, 0x3c, 0x7e, 0x66, 0x06, 0x82, 0x66, 0x3c, 0x42, 0x3c, 0x66, 0x66, 0x66, 0x46, 0x46, 0x66, 0x66, 0x18, 0x62, 0x36, 0x06, 0xc6, 0x66, 0x66, 0x7a, 0x66, 0x66, 0x06, 0x66, 0x06, 0x06, 0x06, 0x66, 0x18, 0x60, 0x1e, 0x06, 0xee, 0x6e, 0x66, 0x6a, 0x66, 0x3e, 0x06, 0x66, 0x1e, 0x1e, 0x76, 0x7e, 0x18, 0x60, 0x0e, 0x06, 0xfe, 0x7e, 0x66, 0x7a, 0x7e, 0x66, 0x06, 0x66, 0x06, 0x06, 0x66, 0x66, 0x18, 0x60, 0x1e, 0x06, 0xd6, 0x76, 0x66, 0x02, 0x66, 0x66, 0x66, 0x66, 0x46, 0x06, 0x66, 0x66, 0x18, 0x66, 0x36, 0x46, 0xc6, 0x66, 0x66, 0x3c, 0x66, 0x3e, 0x3c, 0x3e, 0x7e, 0x06, 0x7c, 0x66, 0x3c, 0x3c, 0x66, 0x7e, 0xc6, 0x66, 0x3c, 0x00, 0x00, 0x00, 0x00, 0x00, 0x00, 0x00, 0x00, 0x00, 0x00, 0x00, 0x00, 0x00, 0x00, 0x00, 0x00, 0x00, 0x00, 0x00, 0x00, 0x00, 0x00, 0x00, 0x00, 0x00, 0x00, 0x00, 0x00, 0x00, 0x00, 0x00, 0x00, 0x00, 0x00, 0x00, 0x00, 0x00, 0x00, 0x00, 0x00, 0x00, 0x00, 0x00, 0x00, 0x00, 0x00, 0x00, 0x00,
 0x00, 0x00, 0x00, 0x00, 0x00, 0x00, 0x00, 0x00, 0x00, 0x00, 0x00, 0x00, 0x00, 0x00, 0x00, 0x00, 0x3e, 0x3c, 0x3e, 0x3c, 0x7e, 0x66, 0x66, 0xc6, 0x66, 0x66, 0x7e, 0x3c, 0x02, 0x3c, 0x18, 0x00, 0x66, 0x66, 0x66, 0x66, 0x5a, 0x66, 0x66, 0xc6, 0x66, 0x66, 0x62, 0x0c, 0x06, 0x30, 0x3c, 0x00, 0x66, 0x66, 0x66, 0x06, 0x18, 0x66, 0x66, 0xc6, 0x3c, 0x66, 0x30, 0x0c, 0x0c, 0x30, 0x66, 0x00, 0x66, 0x66, 0x66, 0x3c, 0x18, 0x66, 0x66, 0xd6, 0x18, 0x3c, 0x18, 0x0c, 0x18, 0x30, 0x00, 0x00, 0x3e, 0x66, 0x3e, 0x60, 0x18, 0x66, 0x66, 0xd6, 0x3c, 0x18, 0x0c, 0x0c, 0x30, 0x30, 0x00, 0x00, 0x06, 0x76, 0x36, 0x66, 0x18, 0x66, 0x3c, 0xfe, 0x66, 0x18, 0x46, 0x0c, 0x60, 0x30, 0x00, 0x00, 0x06, 0x3c, 0x66, 0x3c, 0x18, 0x3c, 0x18, 0x6c, 0x66, 0x18, 0x7e, 0x3c, 0x40, 0x3c, 0x00, 0x7e, 0x00, 0x40, 0x00, 0x00, 0x00, 0x00, 0x00, 0x00, 0x00, 0x00, 0x00, 0x00, 0x00, 0x00, 0x00, 0x00, 0x00, 0x00, 0x00, 0x00, 0x00, 0x00, 0x00, 0x00, 0x00, 0x00, 0x00, 0x00, 0x00, 0x00, 0x00, 0x00, 0x00, 0x00, 0x00, 0x00, 0x00, 0x00, 0x00, 0x00, 0x00, 0x00, 0x00, 0x00, 0x00, 0x00, 0x00, 0x00,
 0x00, 0x00, 0x00, 0x00, 0x00, 0x00, 0x00, 0x00, 0x00, 0x00, 0x00, 0x00, 0x00, 0x00, 0x00, 0x00, 0x10, 0x00, 0x06, 0x00, 0x60, 0x00, 0x38, 0x00, 0x06, 0x18, 0x30, 0x06, 0x06, 0x00, 0x00, 0x00, 0x08, 0x3c, 0x06, 0x00, 0x60, 0x00, 0x6c, 0x00, 0x06, 0x18, 0x30, 0x06, 0x0c, 0x00, 0x00, 0x00, 0x18, 0x60, 0x06, 0x3c, 0x60, 0x3c, 0x0c, 0x00, 0x06, 0x00, 0x00, 0x66, 0x0c, 0x6e, 0x36, 0x3c, 0x18, 0x7c, 0x3e, 0x66, 0x7c, 0x66, 0x0c, 0x7c, 0x3e, 0x18, 0x30, 0x36, 0x0c, 0xfe, 0x6e, 0x66, 0x00, 0x66, 0x66, 0x06, 0x66, 0x7e, 0x1e, 0x66, 0x66, 0x18, 0x30, 0x1e, 0x0c, 0xd6, 0x66, 0x66, 0x00, 0x66, 0x66, 0x66, 0x66, 0x06, 0x0c, 0x66, 0x66, 0x18, 0x30, 0x3e, 0x6c, 0xd6, 0x66, 0x66, 0x00, 0x7c, 0x3e, 0x3c, 0x7c, 0x3c, 0x0c, 0x7c, 0x66, 0x18, 0x30, 0x66, 0x38, 0xd6, 0x66, 0x3c, 0x00, 0x00, 0x00, 0x00, 0x00, 0x00, 0x00, 0x60, 0x00, 0x00, 0x36, 0x00, 0x00, 0x00, 0x00, 0x00, 0x00, 0x00, 0x00, 0x00, 0x00, 0x00, 0x00, 0x3c, 0x00, 0x00, 0x1c, 0x00, 0x00, 0x00, 0x00, 0x00, 0x00, 0x00, 0x00, 0x00, 0x00, 0x00, 0x00, 0x00, 0x00, 0x00, 0x00, 0x00, 0x00, 0x00, 0x00, 0x00,
 0x00, 0x00, 0x00, 0x00, 0x00, 0x00, 0x00, 0x00, 0x00, 0x00, 0x00, 0x00, 0x00, 0x00, 0x00, 0x00, 0x00, 0x00, 0x00, 0x00, 0x0c, 0x00, 0x00, 0x00, 0x00, 0x00, 0x00, 0x30, 0x18, 0x0c, 0x6c, 0x7e, 0x00, 0x00, 0x00, 0x00, 0x0c, 0x00, 0x00, 0x00, 0x00, 0x00, 0x00, 0x18, 0x18, 0x18, 0x36, 0x42, 0x3e, 0x7c, 0x76, 0x3c, 0x1e, 0x66, 0x66, 0xc6, 0x66, 0x66, 0x7e, 0x18, 0x18, 0x18, 0x00, 0x00, 0x66, 0x66, 0x4e, 0x06, 0x0c, 0x66, 0x66, 0xd6, 0x3c, 0x66, 0x30, 0x0c, 0x18, 0x30, 0x00, 0x00, 0x66, 0x66, 0x06, 0x3c, 0x0c, 0x66, 0x66, 0xd6, 0x18, 0x66, 0x18, 0x18, 0x18, 0x18, 0x00, 0x00, 0x66, 0x66, 0x06, 0x60, 0x6c, 0x66, 0x3c, 0xd6, 0x3c, 0x66, 0x0c, 0x18, 0x18, 0x18, 0x00, 0x00, 0x3e, 0x7c, 0x06, 0x3c, 0x38, 0x5c, 0x18, 0x6c, 0x66, 0x7c, 0x7e, 0x30, 0x18, 0x0c, 0x00, 0x00, 0x06, 0x60, 0x00, 0x00, 0x00, 0x00, 0x00, 0x00, 0x00, 0x60, 0x00, 0x00, 0x18, 0x00, 0x00, 0x00, 0x06, 0x60, 0x00, 0x00, 0x00, 0x00, 0x00, 0x00, 0x00, 0x3c, 0x00, 0x00, 0x00, 0x00, 0x00, 0x00, 0x00, 0x00, 0x00, 0x00, 0x00, 0x00, 0x00, 0x00, 0x00, 0x00, 0x00, 0x00, 0x00, 0x00, 0x00, 0x00,
}
